<svg xmlns="http://www.w3.org/2000/svg" viewBox="0 0 620 170" role="img" aria-labelledby="title desc"><title id="title">MGT Engenharia</title><desc id="desc">Logotipo tipográfico da MGT Engenharia</desc><rect width="620" height="170" rx="22" fill="#fff"/><path d="M34 132V38h26l34 55 34-55h26v94h-25V78l-35 54-35-54v54z" fill="#5626a8"/><path d="M174 85c0-30 23-50 54-50 18 0 32 6 42 17l-17 17c-7-7-14-10-24-10-17 0-29 11-29 27s12 27 30 27c6 0 12-1 18-5V96h-23V76h47v44c-12 9-28 15-45 15-31 0-53-20-53-50z" fill="#5626a8"/><path d="M312 60h-30V38h86v22h-30v72h-26z" fill="#5626a8"/><text x="395" y="84" font-family="Arial,Helvetica,sans-serif" font-size="35" font-weight="700" fill="#272132">ENGENHARIA</text><text x="396" y="117" font-family="Arial,Helvetica,sans-serif" font-size="18" letter-spacing="2" fill="#6a6175">SOLUÇÕES PARA CONDOMÍNIOS</text></svg>
